<?xml version="1.0" standalone="no"?>
<!DOCTYPE svg PUBLIC "-//W3C//DTD SVG 20010904//EN"
 "http://www.w3.org/TR/2001/REC-SVG-20010904/DTD/svg10.dtd">
<svg version="1.0" xmlns="http://www.w3.org/2000/svg"
 width="200.000000pt" height="200.000000pt" viewBox="0 0 200.000000 200.000000"
 preserveAspectRatio="xMidYMid meet">
<metadata>
Created by potrace 1.11, written by Peter Selinger 2001-2013
</metadata>
<g transform="translate(0.000000,200.000000) scale(0.100000,-0.100000)"
fill="#000000" stroke="none">
<path d="M553 1672 c-13 -2 -28 -11 -35 -21 -7 -10 -28 -22 -46 -26 -49 -10
-65 -42 -58 -117 3 -35 7 -78 7 -95 2 -39 8 -41 37 -10 17 18 20 32 18 88 -2
36 -6 70 -9 76 -4 6 -2 13 5 15 15 5 47 -83 48 -129 0 -20 -11 -49 -30 -76
-35 -49 -38 -68 -26 -190 6 -59 5 -96 -2 -110 -6 -12 -18 -48 -27 -79 -13 -48
-19 -58 -38 -58 -12 0 -29 -5 -37 -10 -12 -8 -10 -10 10 -11 14 -1 28 -1 33 0
4 0 7 -5 7 -13 0 -8 -23 -29 -52 -46 -35 -22 -47 -34 -39 -40 15 -8 50 -2 69
13 8 6 17 6 26 -2 16 -14 25 -5 32 34 2 14 18 52 34 84 17 32 30 65 30 72 0 8
8 33 17 55 l17 42 47 -73 c26 -41 56 -94 67 -119 23 -51 62 -76 119 -76 87 0
103 11 244 173 127 145 148 166 159 167 3 0 4 -24 4 -52 -4 -110 62 -210 172
-264 48 -23 70 -28 138 -28 72 -1 89 3 148 32 291 143 184 541 -149 551 -23 1
-24 13 -2 87 22 74 -7 100 -40 37 -28 -53 -55 -82 -150 -158 -91 -72 -113 -84
-181 -105 -50 -16 -67 -26 -190 -121 -117 -90 -116 -90 -158 -35 -16 21 -22
42 -22 81 0 58 -5 67 -89 153 -28 29 -49 57 -46 63 4 5 10 7 14 5 20 -13 61
51 51 79 -4 11 -2 34 6 53 7 18 11 39 8 47 -13 32 -92 65 -141 57z"/>
<path d="M230 722 c-26 -9 -39 -36 -40 -79 0 -51 26 -80 79 -89 50 -9 81 -30
81 -57 0 -42 -15 -50 -84 -52 -112 -2 -99 -35 14 -35 71 0 81 4 99 37 30 58 3
117 -62 133 -81 21 -89 26 -85 68 l3 37 73 3 c67 3 87 12 61 27 -13 9 -119 14
-139 7z"/>
<path d="M983 693 c-7 -3 -13 -18 -13 -34 0 -22 -5 -29 -20 -29 -11 0 -20 -7
-20 -15 0 -8 9 -15 20 -15 18 0 20 -7 20 -78 0 -64 4 -82 18 -95 31 -28 101
-18 83 12 -5 7 -11 12 -15 12 -44 -6 -46 -3 -46 74 l0 75 36 0 c45 0 42 24 -4
28 -28 3 -32 7 -32 32 0 31 -8 40 -27 33z"/>
<path d="M1140 664 c0 -27 -4 -34 -20 -34 -11 0 -20 -7 -20 -15 0 -8 9 -15 20
-15 18 0 20 -7 20 -79 0 -92 12 -111 66 -111 27 0 34 4 34 19 0 14 -6 19 -18
16 -32 -6 -42 9 -43 66 -2 91 -3 89 36 89 46 0 42 23 -5 30 -31 4 -35 8 -32
31 2 20 -2 28 -17 32 -18 4 -21 1 -21 -29z"/>
<path d="M537 629 c-16 -4 -35 -13 -43 -20 -11 -9 -14 -8 -14 6 0 10 -6 15
-17 13 -15 -3 -17 -20 -17 -146 -1 -152 3 -174 27 -154 9 8 13 27 12 56 -3 44
-2 45 22 35 29 -11 84 -12 99 -1 23 15 37 58 36 109 0 86 -37 120 -105 102z
m60 -56 c14 -41 6 -106 -14 -121 -16 -12 -79 -9 -92 4 -3 3 -5 29 -6 60 -2 50
1 56 24 69 44 24 78 19 88 -12z"/>
<path d="M753 628 c-46 -12 -67 -56 -59 -122 7 -68 38 -96 105 -96 37 0 52 5
69 23 38 41 34 164 -6 186 -27 15 -74 19 -109 9z m86 -37 c18 -11 22 -114 6
-130 -19 -19 -69 -23 -90 -7 -16 11 -20 26 -20 71 0 38 5 59 15 65 19 12 71
12 89 1z"/>
<path d="M1344 632 c-33 -5 -55 -36 -60 -83 -6 -62 11 -113 41 -127 47 -21
166 -10 143 13 -4 4 -31 8 -62 8 -58 2 -72 10 -78 42 -3 18 3 20 60 20 70 0
82 9 82 62 0 36 -22 63 -53 64 -12 0 -29 2 -37 3 -8 1 -25 0 -36 -2z m86 -51
c15 -29 -5 -46 -55 -47 -51 -1 -64 11 -46 45 18 33 83 34 101 2z"/>
<path d="M1602 620 c-35 -16 -42 -17 -42 -5 0 8 -7 15 -15 15 -12 0 -15 -19
-15 -109 0 -98 2 -109 18 -107 14 2 17 16 20 85 l3 81 44 12 c45 12 65 32 41
41 -7 3 -32 -3 -54 -13z"/>
</g>
</svg>
